<?xml version="1.0" standalone="no"?>
<!DOCTYPE svg PUBLIC "-//W3C//DTD SVG 20010904//EN"
 "http://www.w3.org/TR/2001/REC-SVG-20010904/DTD/svg10.dtd">
<svg version="1.0" xmlns="http://www.w3.org/2000/svg"
 width="960.000000pt" height="843.000000pt" viewBox="0 0 960.000000 843.000000"
 preserveAspectRatio="xMidYMid meet">
<metadata>
Created by potrace 1.16, written by Peter Selinger 2001-2019
</metadata>
<g transform="translate(0.000000,843.000000) scale(0.100000,-0.100000)"
fill="#000000" stroke="none">
<path d="M3122 5928 l3 -533 145 -84 c80 -46 244 -141 365 -211 121 -70 236
-137 256 -148 36 -20 202 -116 434 -250 128 -74 220 -127 322 -184 l51 -29 34
19 c18 11 146 84 283 162 138 79 279 160 315 180 36 21 153 88 260 150 107 62
303 175 435 250 l240 137 3 537 2 536 -480 0 -480 0 0 -544 0 -545 33 14 c17
7 78 36 134 65 l103 51 2 342 3 342 205 0 205 0 3 -337 2 -336 -52 -29 c-85
-46 -680 -383 -956 -540 -139 -79 -263 -149 -276 -154 -20 -10 -48 3 -212 96
-104 59 -238 136 -299 170 -60 34 -182 103 -270 153 -88 50 -243 137 -345 194
l-185 104 -3 342 -2 342 205 0 205 0 0 -332 0 -333 119 -68 c66 -38 129 -71
140 -74 l21 -5 0 541 0 541 -485 0 -485 0 2 -532z"/>
<path d="M3122 5059 l3 -153 85 -48 c47 -27 108 -62 135 -77 28 -15 232 -131
455 -256 223 -126 434 -245 470 -265 36 -20 147 -82 247 -139 l182 -102 153
87 c84 47 369 208 633 357 264 149 512 288 550 310 39 22 107 60 153 85 l82
45 0 150 c0 132 -2 148 -16 143 -9 -3 -80 -43 -157 -88 -368 -212 -528 -304
-597 -342 -92 -52 -538 -307 -675 -387 -130 -76 -128 -75 -172 -49 -38 22
-285 165 -458 265 -49 29 -166 96 -260 150 -93 54 -183 106 -200 115 -16 10
-111 63 -209 120 -99 56 -196 112 -215 124 -20 12 -71 42 -114 65 l-78 43 3
-153z"/>
<path d="M3120 3965 l0 -685 -115 0 -115 0 0 -120 0 -120 710 0 710 0 0 120 0
120 -110 0 -110 0 0 414 c0 319 -3 416 -12 424 -7 5 -53 32 -103 60 -49 27
-160 89 -245 137 -85 48 -175 99 -199 113 -25 14 -67 38 -93 53 -27 16 -51 29
-54 29 -2 0 -21 11 -42 23 -48 31 -208 117 -216 117 -3 0 -6 -308 -6 -685z"/>
<path d="M6095 4559 c-88 -50 -194 -110 -235 -134 -41 -23 -145 -81 -230 -130
-85 -48 -192 -108 -237 -133 l-83 -46 0 -418 0 -418 -115 0 -115 0 0 -120 0
-120 710 0 710 0 0 120 0 119 -112 3 -113 3 -3 683 c-1 375 -5 682 -10 682 -4
0 -79 -42 -167 -91z"/>
<path d="M2810 1947 c0 -200 2 -366 4 -368 2 -2 43 -3 90 -1 l86 3 2 174 3
174 86 -72 c141 -118 340 -281 355 -290 12 -7 14 48 14 358 l0 365 -90 0 -90
0 0 -176 c0 -169 -1 -175 -19 -162 -10 7 -105 85 -211 173 -107 88 -202 166
-212 173 -17 13 -18 0 -18 -351z"/>
<path d="M6850 1945 l0 -365 90 0 90 0 2 176 3 177 131 -109 c222 -184 315
-259 325 -262 6 -2 8 135 7 365 -3 343 -4 368 -20 367 -10 -1 -49 -2 -88 -3
l-70 -1 0 -175 c0 -96 -3 -175 -7 -175 -5 1 -20 11 -34 23 -110 93 -419 347
-424 347 -3 0 -5 -164 -5 -365z"/>
<path d="M1328 2288 c-8 -4 -11 -119 -10 -355 l1 -348 96 -3 95 -3 0 111 0
110 125 0 125 0 0 -110 0 -110 95 0 95 0 0 355 0 355 -95 0 -95 0 -2 -162 -3
-163 -122 -3 -123 -3 -2 167 -3 167 -83 1 c-46 1 -89 -2 -94 -6z"/>
<path d="M2506 2292 c-3 -3 -6 -108 -6 -234 0 -245 -6 -280 -51 -312 -32 -22
-117 -21 -145 2 -41 33 -44 52 -44 301 l0 241 -96 0 -95 0 3 -272 c3 -304 3
-301 75 -369 51 -49 90 -67 167 -78 84 -12 169 0 232 32 58 29 84 56 116 117
22 43 23 55 26 308 l3 262 -73 1 c-40 0 -81 2 -90 4 -9 2 -19 0 -22 -3z"/>
<path d="M3793 2281 c-106 -39 -192 -123 -229 -222 -24 -65 -22 -190 5 -261
30 -79 97 -150 179 -190 65 -32 70 -33 197 -33 137 1 195 15 267 66 l28 20 0
150 0 149 -155 0 -155 0 0 -70 0 -70 70 0 70 0 0 -33 c0 -31 -4 -35 -39 -45
-59 -18 -151 -15 -191 7 -19 10 -48 37 -65 60 -28 39 -30 50 -30 125 0 93 19
133 81 174 65 43 181 26 241 -34 13 -13 22 -8 74 37 32 28 62 55 65 60 9 15
-56 70 -116 98 -75 34 -219 40 -297 12z"/>
<path d="M4633 2292 c-51 -1 -93 -4 -93 -6 0 -2 26 -59 58 -127 33 -68 107
-229 167 -356 59 -128 111 -233 115 -233 4 0 42 73 83 163 42 89 96 205 120
257 98 209 137 293 137 297 0 2 -44 2 -97 1 l-97 -3 -43 -105 c-24 -58 -55
-130 -69 -160 l-26 -55 -40 85 c-21 47 -53 117 -69 157 -17 39 -36 75 -42 80
-7 4 -54 7 -104 5z"/>
<path d="M5793 2292 l-73 -3 0 -217 c0 -119 -5 -235 -10 -257 -13 -58 -49 -85
-111 -85 -113 0 -119 17 -119 320 l0 240 -95 0 -95 0 0 -252 c0 -142 5 -268
10 -288 38 -129 186 -203 359 -179 129 18 216 95 241 212 6 31 9 144 8 281 -3
221 -4 229 -23 230 -11 1 -53 0 -92 -2z"/>
<path d="M6242 2280 c-119 -39 -218 -148 -243 -269 -35 -168 51 -336 209 -409
45 -20 77 -27 148 -30 139 -6 225 27 312 122 70 76 87 123 87 241 -1 88 -4
107 -28 156 -34 70 -109 142 -185 177 -79 36 -209 41 -300 12z m228 -165 c69
-36 107 -133 89 -230 -10 -57 -32 -90 -78 -122 -106 -72 -269 -7 -287 113 -16
109 14 192 86 233 43 25 146 29 190 6z"/>
<path d="M7853 2286 c-100 -33 -195 -115 -236 -204 -18 -38 -22 -66 -22 -147
0 -121 18 -168 95 -249 75 -79 147 -109 277 -114 116 -5 205 16 281 65 l42 27
0 148 0 149 -157 -3 -158 -3 0 -65 0 -65 70 -5 c68 -5 70 -6 73 -33 3 -23 -2
-30 -32 -42 -44 -19 -146 -19 -189 -1 -82 34 -132 146 -108 243 24 95 82 143
175 143 65 0 102 -12 137 -46 l25 -24 60 51 c32 29 60 57 62 64 4 17 -64 74
-117 98 -58 26 -215 34 -278 13z"/>
<path d="M3305 1223 c-88 -22 -166 -147 -149 -240 11 -64 51 -123 107 -156 64
-39 183 -31 235 16 19 17 22 31 22 89 0 61 -2 69 -17 66 -15 -3 -19 -16 -21
-70 l-3 -66 -40 -16 c-68 -28 -134 -14 -190 39 -61 57 -75 136 -38 212 42 86
156 120 247 74 25 -13 43 -17 47 -11 25 40 -115 84 -200 63z"/>
<path d="M3890 1015 c0 -184 2 -215 15 -215 12 0 15 15 15 76 l0 75 32 -3 c26
-2 39 -13 70 -58 50 -72 66 -90 78 -90 19 0 10 25 -29 84 l-39 58 44 42 c42
40 44 45 44 99 0 46 -5 61 -27 88 -35 41 -79 59 -148 59 l-55 0 0 -215z m149
161 c56 -30 68 -107 23 -157 -24 -27 -37 -33 -85 -37 l-57 -4 0 106 0 106 45
0 c26 0 58 -6 74 -14z"/>
<path d="M4602 1220 c-85 -36 -136 -112 -136 -205 0 -135 104 -226 243 -212
110 12 185 98 184 213 -1 77 -29 133 -91 178 -36 26 -54 31 -110 33 -37 2 -77
-2 -90 -7z m165 -45 c75 -31 113 -147 78 -232 -59 -140 -264 -146 -326 -10
-29 66 -25 126 14 183 51 78 138 99 234 59z"/>
<path d="M5260 1073 c0 -178 9 -210 69 -250 64 -43 156 -20 193 48 15 29 18
58 18 196 0 138 -2 163 -15 163 -13 0 -15 -23 -15 -143 0 -78 -4 -157 -10
-176 -23 -82 -126 -102 -180 -34 -18 23 -20 40 -20 189 0 157 -1 164 -20 164
-19 0 -20 -7 -20 -157z"/>
<path d="M5914 1217 c-2 -7 -3 -102 -2 -212 3 -170 5 -200 18 -200 12 0 16 16
18 73 l3 72 52 0 c97 0 153 59 145 152 -6 55 -33 92 -85 114 -42 18 -142 19
-149 1z m164 -52 c40 -34 49 -75 25 -122 -21 -45 -53 -63 -110 -63 l-43 0 0
105 0 105 49 0 c38 0 56 -6 79 -25z"/>
</g>
</svg>
