<?xml version="1.0" standalone="no"?>
<!DOCTYPE svg PUBLIC "-//W3C//DTD SVG 20010904//EN"
 "http://www.w3.org/TR/2001/REC-SVG-20010904/DTD/svg10.dtd">
<svg version="1.0" xmlns="http://www.w3.org/2000/svg"
 width="676.000000pt" height="552.000000pt" viewBox="0 0 676.000000 552.000000"
 preserveAspectRatio="xMidYMid meet">
<metadata>
Created by potrace 1.16, written by Peter Selinger 2001-2019
</metadata>
<g transform="translate(0.000000,552.000000) scale(0.100000,-0.100000)"
fill="#000000" stroke="none">
<path d="M3045 4609 c-456 -48 -767 -131 -1100 -293 -425 -208 -689 -477 -795
-811 -31 -97 -39 -281 -16 -388 28 -139 98 -284 198 -414 118 -154 354 -338
583 -455 582 -297 1383 -392 2125 -252 104 20 374 91 415 109 17 7 71 28 120
45 101 36 305 139 410 208 308 201 504 442 577 710 17 60 21 106 21 212 0 118
-3 146 -27 224 -30 98 -101 244 -148 303 -16 21 -42 54 -56 73 -107 140 -357
324 -597 440 -328 158 -685 252 -1100 290 -129 12 -495 11 -610 -1z m705 -38
c293 -37 592 -109 834 -201 475 -180 814 -485 939 -844 31 -87 32 -98 32 -246
0 -169 -13 -231 -75 -364 -111 -240 -348 -462 -670 -632 -153 -81 -455 -196
-577 -220 -7 -1 -42 -10 -78 -19 -224 -56 -507 -85 -825 -85 -491 1 -931 91
-1328 271 -34 16 -64 29 -66 29 -7 0 -193 108 -229 133 -266 183 -442 393
-518 618 -161 480 115 953 746 1279 290 150 705 252 1195 294 82 7 534 -3 620
-13z"/>
<path d="M3125 4564 c-22 -2 -92 -9 -155 -15 -451 -42 -901 -192 -1240 -413
-85 -55 -200 -148 -245 -196 -40 -44 -12 -27 45 26 296 278 793 483 1340 554
298 39 707 39 990 0 226 -30 547 -118 759 -207 57 -24 106 -42 108 -40 7 7
-200 95 -307 131 -210 70 -450 121 -680 147 -98 10 -544 20 -615 13z"/>
<path d="M4950 4148 c3 -3 50 -39 105 -81 123 -93 180 -148 259 -252 108 -141
141 -203 178 -332 27 -93 31 -292 9 -383 -76 -307 -351 -600 -747 -796 -122
-61 -141 -69 -329 -136 -165 -58 -402 -113 -595 -137 -543 -68 -1084 -20
-1555 140 -273 92 -517 223 -693 371 -126 106 -177 163 -254 283 -198 307
-184 667 37 959 88 115 88 116 82 116 -16 0 -142 -178 -177 -249 -93 -188
-118 -335 -86 -503 45 -234 169 -431 386 -613 176 -147 452 -297 690 -374 74
-24 144 -47 155 -52 11 -4 31 -10 45 -13 14 -3 77 -16 140 -30 102 -23 239
-45 370 -61 120 -15 408 -22 558 -14 489 26 888 125 1247 309 102 53 265 153
296 182 8 7 46 39 84 70 168 136 307 344 355 532 42 167 17 393 -60 547 -69
137 -184 278 -317 391 -46 39 -202 146 -183 126z"/>
<path d="M2313 4128 c-11 -14 -12 -18 -212 -668 -77 -250 -144 -468 -150 -485
-5 -16 -26 -84 -46 -150 -36 -116 -52 -168 -95 -304 -11 -35 -20 -68 -20 -73
0 -4 181 -7 402 -6 l402 3 14 45 c7 25 26 88 42 140 61 202 113 372 170 550
64 202 138 439 176 565 13 44 27 116 30 160 6 69 4 86 -14 120 -25 50 -45 68
-102 94 -42 19 -65 21 -316 21 -206 0 -274 -3 -281 -12z"/>
<path d="M3267 3903 c-41 -126 -73 -231 -70 -235 2 -5 159 -8 349 -8 l344 0 9
23 c5 12 19 59 31 104 27 97 49 136 92 163 41 25 108 26 137 3 12 -10 26 -37
31 -59 12 -51 7 -68 -98 -399 -44 -137 -108 -340 -142 -450 -105 -339 -158
-508 -174 -554 -32 -88 -63 -81 343 -81 203 0 362 4 365 9 7 11 98 311 149
491 20 69 57 195 82 280 175 594 197 677 202 756 6 93 -8 133 -60 164 -31 19
-56 20 -773 20 l-742 0 -75 -227z"/>
<path d="M3194 3432 c-6 -4 -59 -151 -119 -327 -59 -176 -134 -396 -166 -488
-41 -119 -55 -169 -46 -173 7 -2 151 -3 321 -2 l309 3 24 65 c30 84 121 345
185 529 92 268 73 349 -90 387 -61 15 -398 20 -418 6z"/>
<path d="M4341 1777 c-6 -8 -49 -90 -97 -183 -102 -201 -120 -230 -156 -245
-51 -21 -29 -29 77 -29 58 0 105 2 105 6 0 3 -16 12 -35 20 -38 15 -44 38 -25
88 9 26 11 26 110 26 95 0 100 -1 116 -25 24 -37 24 -88 -1 -93 -11 -2 -24 -8
-30 -13 -5 -5 42 -9 118 -9 125 0 148 6 105 25 -14 7 -55 77 -126 220 -57 116
-109 213 -116 217 -17 11 -32 9 -45 -5z m27 -200 c17 -39 32 -75 32 -79 0 -5
-36 -8 -80 -8 -44 0 -80 3 -80 7 0 18 74 153 84 153 6 0 26 -33 44 -73z"/>
<path d="M1360 1766 c0 -9 12 -16 33 -18 l32 -3 0 -200 0 -200 -32 -3 c-18 -2
-33 -7 -33 -13 0 -5 60 -9 140 -9 80 0 140 4 140 9 0 6 -15 11 -32 13 l-33 3
-6 85 c-3 47 -3 89 1 93 8 9 69 12 158 9 l52 -2 0 -79 c0 -102 -4 -111 -46
-111 -19 0 -34 -4 -34 -9 0 -9 248 -20 270 -13 21 7 8 21 -22 24 l-33 3 0 200
0 200 33 3 c20 2 32 9 32 18 0 12 -22 14 -135 12 -81 -2 -135 -7 -135 -13 -1
-5 14 -12 32 -15 l33 -5 0 -85 0 -85 -103 -3 c-120 -3 -118 -6 -107 103 l7 74
31 3 c18 2 31 8 30 13 -2 6 -59 11 -138 13 -113 2 -135 0 -135 -12z"/>
<path d="M2040 1766 c0 -9 12 -16 33 -18 l32 -3 5 -167 c4 -149 7 -170 26
-195 40 -53 79 -67 194 -71 95 -3 109 -1 149 20 31 17 52 38 68 68 21 39 23
56 23 180 0 162 4 170 88 170 l51 0 69 -92 c108 -146 103 -135 100 -229 l-3
-84 -37 -3 c-21 -2 -38 -7 -38 -13 0 -5 63 -9 151 -9 97 0 148 4 144 10 -3 6
-19 10 -34 10 -43 0 -51 16 -51 103 l0 79 56 82 c73 105 92 125 133 142 56 24
25 35 -85 32 -96 -3 -131 -17 -70 -28 51 -9 53 -30 13 -97 -42 -68 -64 -91
-76 -77 -34 36 -101 140 -101 154 0 11 9 20 20 22 12 2 21 8 20 13 0 13 -445
19 -468 6 -15 -9 -15 -10 3 -16 59 -19 62 -22 68 -72 3 -26 4 -96 2 -155 -4
-149 -28 -178 -146 -178 -73 0 -113 19 -128 61 -12 35 -15 307 -3 326 4 6 21
13 37 15 17 1 29 8 28 13 -2 6 -59 11 -138 13 -113 2 -135 0 -135 -12z"/>
<path d="M3536 1764 c-10 -26 -7 -154 4 -154 6 0 21 24 34 54 28 63 57 86 108
86 l38 0 0 -199 c0 -215 1 -211 -56 -211 -13 0 -24 -4 -24 -10 0 -6 57 -10
152 -10 94 0 148 4 143 9 -6 5 -26 11 -45 13 l-35 3 0 200 0 200 36 3 c47 4
91 -32 115 -93 33 -88 54 -44 38 79 l-7 46 -247 0 c-217 0 -249 -2 -254 -16z"/>
<path d="M4736 1771 c-4 -5 11 -18 31 -28 l38 -18 3 -165 c1 -91 0 -175 -3
-187 -4 -16 -15 -24 -40 -29 -68 -12 -34 -24 70 -24 101 0 136 12 76 25 -16 3
-34 12 -40 18 -5 7 -11 75 -12 152 -2 114 0 140 12 143 8 1 93 -77 189 -173
101 -103 181 -174 190 -173 13 3 16 33 20 203 3 110 8 205 13 212 4 6 24 17
43 23 55 19 24 30 -83 30 -72 0 -93 -3 -93 -14 0 -7 14 -16 30 -20 20 -4 34
-14 40 -31 11 -30 14 -218 3 -229 -4 -3 -75 61 -158 144 l-151 150 -87 0 c-47
0 -88 -4 -91 -9z"/>
</g>
</svg>
