<?xml version="1.0" standalone="no"?>
<!DOCTYPE svg PUBLIC "-//W3C//DTD SVG 20010904//EN"
 "http://www.w3.org/TR/2001/REC-SVG-20010904/DTD/svg10.dtd">
<svg version="1.0" xmlns="http://www.w3.org/2000/svg"
 width="814.000000pt" height="513.000000pt" viewBox="0 0 814.000000 513.000000"
 preserveAspectRatio="xMidYMid meet">
<metadata>
Created by potrace 1.16, written by Peter Selinger 2001-2019
</metadata>
<g transform="translate(0.000000,513.000000) scale(0.100000,-0.100000)"
fill="#000000" stroke="none">
<path d="M4760 4729 c-175 -12 -270 -26 -525 -78 -41 -8 -176 -45 -230 -61
-128 -40 -227 -74 -262 -91 -24 -10 -46 -19 -50 -19 -34 0 -530 -233 -607
-285 -20 -14 -56 -35 -79 -46 -23 -12 -53 -30 -67 -39 -14 -10 -78 -53 -144
-95 -97 -63 -357 -253 -376 -275 -3 -3 -30 -25 -60 -50 -99 -79 -233 -202
-355 -325 -170 -171 -214 -219 -360 -394 -16 -20 -33 -38 -36 -41 -14 -12
-143 -187 -211 -286 -190 -276 -305 -509 -389 -788 -76 -250 -99 -434 -80
-634 26 -281 126 -454 352 -615 82 -58 232 -129 319 -151 185 -47 110 -46
2521 -46 l2268 0 26 55 c14 30 24 68 23 83 l-3 27 98 3 c53 1 97 -1 97 -6 0
-5 -13 -39 -30 -75 -16 -37 -30 -71 -30 -77 0 -6 40 -10 105 -10 97 0 105 1
105 19 0 11 4 21 8 23 10 4 52 105 52 124 0 11 -20 14 -85 14 -70 0 -85 3 -85
15 0 20 59 138 74 147 6 4 47 8 92 8 64 0 84 4 96 18 18 20 78 137 78 152 0
15 -195 13 -208 -2 -5 -7 -23 -44 -40 -83 l-31 -70 -77 -3 c-42 -2 -81 1 -87
7 -6 6 0 29 16 63 13 29 28 63 31 76 l7 22 -2495 0 c-2196 0 -2508 2 -2594 15
-147 24 -197 42 -281 105 -89 67 -133 250 -100 412 66 323 160 537 375 859
149 224 148 223 269 367 117 139 249 270 362 360 23 19 52 42 65 53 107 88
385 279 407 279 6 0 11 5 11 10 0 6 4 10 10 10 5 0 47 24 92 53 46 29 90 56
98 60 8 4 38 20 65 37 28 16 133 71 235 121 102 50 198 97 213 105 16 8 77 32
135 55 59 22 130 49 158 60 63 25 229 76 309 95 33 8 76 19 95 24 321 82 740
107 925 55 33 -9 74 -20 90 -25 46 -12 83 -28 167 -71 l77 -39 74 62 c41 35
134 111 208 169 169 133 296 236 332 270 l29 26 -49 31 c-107 68 -302 147
-443 180 -25 6 -65 15 -90 21 -67 16 -111 21 -255 31 -147 10 -179 10 -355 -1z
m-2440 -3848 c44 -23 61 -55 58 -106 l-3 -40 -55 0 c-52 0 -55 1 -56 25 -2 41
-3 45 -15 33 -6 -6 -8 -25 -4 -46 l7 -36 62 -3 61 -3 3 -104 c3 -121 -2 -132
-56 -120 -22 5 -41 4 -46 -1 -6 -6 -25 -10 -44 -10 -25 0 -43 9 -68 34 l-34
34 0 135 c0 75 4 147 10 161 22 59 114 83 180 47z m305 5 c61 -26 67 -46 63
-212 l-3 -146 -35 -29 c-27 -23 -44 -29 -80 -29 -54 0 -106 29 -120 66 -6 14
-10 87 -10 163 0 130 1 139 23 158 50 46 100 55 162 29z m310 0 c50 -21 67
-53 63 -123 l-3 -58 -55 0 -55 0 -3 53 c-2 30 -7 50 -13 47 -12 -8 -12 -232 1
-240 6 -4 10 10 10 35 0 44 18 58 71 55 46 -3 52 -13 46 -74 -5 -43 -12 -61
-32 -78 -50 -43 -148 -42 -190 3 -17 18 -24 41 -29 99 -8 88 2 224 18 244 37
47 108 63 171 37z m1766 -25 l39 -39 0 -118 c0 -66 -5 -136 -11 -157 -18 -67
-96 -95 -174 -63 -58 25 -67 49 -69 198 -1 116 1 137 18 161 23 34 68 55 120
56 32 1 45 -6 77 -38z m-2777 23 c9 -4 16 -18 16 -33 0 -15 7 -36 15 -47 13
-18 14 -16 15 21 0 56 10 67 56 63 l39 -3 0 -200 0 -200 -50 0 c-46 0 -50 2
-53 25 -2 14 -9 31 -15 39 -10 12 -13 7 -17 -25 -5 -39 -5 -39 -50 -39 l-45 0
-5 190 c-3 105 -1 196 4 203 9 13 63 16 90 6z m1504 -6 c16 -16 15 -63 0 -76
-7 -5 -21 -11 -32 -13 -17 -4 -19 -15 -20 -154 l-1 -150 -55 0 -55 0 -3 153
-3 152 -29 0 c-29 0 -30 2 -30 43 0 24 3 47 7 50 12 13 208 8 221 -5z m160
-60 c2 -38 7 -68 12 -68 5 0 10 30 12 68 l3 67 55 0 55 0 0 -200 0 -200 -48
-3 c-28 -2 -55 2 -63 9 -11 9 -18 9 -26 1 -7 -7 -34 -12 -60 -12 l-48 0 0 198
c0 109 3 202 7 206 4 4 28 6 53 4 l45 -3 3 -67z m276 66 c9 -3 16 -14 16 -24
0 -10 3 -26 6 -35 5 -13 8 -14 15 -3 5 7 9 23 9 34 0 12 7 25 16 28 25 10 82
7 89 -4 4 -6 -8 -56 -26 -113 -22 -69 -34 -131 -38 -192 l-6 -90 -52 -3 -53
-3 0 66 c0 63 -20 154 -60 272 -13 37 -14 55 -7 62 12 12 66 15 91 5z m458 -6
c9 -7 18 -24 20 -38 4 -23 5 -22 14 10 10 34 12 35 62 38 63 4 63 2 25 -107
l-26 -77 30 -100 c16 -55 27 -106 25 -112 -2 -7 -25 -12 -57 -12 -51 0 -54 1
-57 28 -2 15 -7 25 -13 22 -5 -3 -8 -13 -7 -22 4 -21 -28 -31 -84 -26 l-39 3
-3 194 c-2 149 1 196 10 203 20 12 82 9 100 -4z m561 6 c9 -3 21 -25 28 -50
17 -56 29 -56 29 1 0 40 3 45 26 51 15 4 38 3 52 -2 l25 -9 -2 -190 c-1 -104
-6 -194 -10 -198 -5 -5 -28 -7 -51 -5 -42 3 -43 4 -59 53 l-16 50 -5 -50 -5
-50 -48 0 -49 0 1 193 c0 106 3 197 6 202 7 11 55 13 78 4z m595 -23 c7 -43
-6 -71 -33 -71 l-24 0 -3 -152 -3 -153 -55 0 -55 0 -3 152 -3 152 -27 3 c-23
2 -28 8 -30 36 -6 62 -4 63 120 60 110 -3 113 -4 116 -27z m282 19 c15 -9 14
-324 -1 -352 -39 -72 -174 -76 -223 -6 -21 30 -24 354 -3 361 21 7 214 5 227
-3z m206 2 c6 -4 15 -25 19 -47 l8 -40 10 35 c5 19 11 41 13 48 3 9 23 12 71
10 l68 -3 3 -203 2 -203 -52 3 -53 3 -5 45 c-5 42 -6 43 -13 17 -4 -15 -5 -32
-2 -36 9 -15 -23 -33 -52 -29 -25 3 -29 8 -39 58 l-11 55 -4 -55 -4 -55 -39
-3 c-21 -2 -43 1 -48 6 -6 6 -11 91 -12 197 -2 160 0 187 13 195 19 11 111 13
127 2z m539 -132 c4 -6 -13 -43 -37 -83 l-43 -72 -68 -1 c-37 0 -70 3 -73 7
-3 5 7 29 21 54 14 25 25 51 25 57 0 6 7 20 17 30 12 14 31 18 84 18 37 0 71
-5 74 -10z"/>
<path d="M2432 2758 c-7 -7 -12 -18 -12 -26 0 -8 -6 -26 -14 -40 -11 -22 -71
-169 -156 -387 -4 -11 -12 -31 -19 -45 -15 -34 -125 -306 -161 -400 -44 -115
-99 -249 -126 -307 -13 -28 -24 -56 -24 -62 0 -5 -25 -68 -55 -140 -30 -72
-55 -133 -55 -136 0 -3 -9 -25 -21 -50 -11 -24 -18 -49 -15 -54 4 -6 98 -9
254 -8 l247 2 88 225 c49 124 93 234 97 245 5 11 39 97 75 190 37 94 70 179
74 190 19 45 35 75 42 75 4 0 18 -21 31 -47 26 -50 43 -81 163 -298 40 -71 83
-148 95 -170 12 -22 29 -53 39 -70 21 -36 98 -178 139 -258 49 -94 23 -87 307
-87 l253 0 32 77 c17 43 35 87 39 98 5 11 19 45 31 75 21 54 30 77 50 123 5
12 28 69 51 127 22 58 47 119 54 135 7 17 43 107 81 200 37 94 71 177 75 185
4 8 27 65 51 125 l43 110 250 0 250 0 -3 -25 c-1 -14 -11 -44 -22 -67 -11 -24
-20 -49 -20 -56 0 -7 -4 -17 -9 -22 -5 -6 -14 -28 -21 -50 -7 -22 -23 -62 -35
-90 -13 -27 -35 -81 -50 -120 -15 -38 -34 -86 -42 -105 -8 -19 -19 -44 -23
-55 -5 -11 -27 -67 -50 -125 -23 -58 -48 -121 -57 -140 -18 -42 -33 -78 -43
-105 -5 -11 -15 -36 -23 -55 -8 -19 -29 -73 -47 -120 -18 -47 -37 -90 -42 -97
-6 -7 -8 -16 -5 -20 3 -4 117 -7 254 -5 l248 3 68 172 c38 95 77 191 88 214
10 24 19 45 19 48 0 3 8 24 19 48 10 23 29 69 41 102 13 33 33 83 45 110 12
28 32 77 44 110 13 33 29 74 36 90 8 17 23 55 35 85 11 30 30 74 40 97 11 24
20 49 20 56 0 7 4 17 9 22 4 6 16 31 26 58 l18 47 285 0 c190 0 298 4 326 12
83 24 158 93 192 176 9 20 22 51 29 67 27 64 55 138 55 147 0 5 -456 7 -1072
6 l-1073 -3 -44 -25 c-71 -40 -112 -96 -149 -201 -49 -138 -139 -373 -153
-401 -5 -10 -9 -26 -9 -36 0 -10 -3 -22 -7 -25 -3 -4 -14 -28 -24 -54 -9 -27
-29 -79 -44 -118 -14 -38 -33 -90 -42 -115 -8 -25 -19 -49 -24 -55 -5 -5 -9
-20 -9 -33 0 -40 -29 -22 -62 38 -16 30 -45 82 -63 115 -18 33 -47 87 -65 120
-71 133 -114 212 -138 255 -14 25 -46 83 -70 130 -25 47 -61 114 -81 150 -20
36 -43 78 -51 94 -27 52 -89 114 -142 140 -48 24 -62 26 -188 26 -92 0 -140
-4 -148 -12z"/>
</g>
</svg>
