<?xml version="1.0" standalone="no"?>
<!DOCTYPE svg PUBLIC "-//W3C//DTD SVG 20010904//EN"
 "http://www.w3.org/TR/2001/REC-SVG-20010904/DTD/svg10.dtd">
<svg version="1.0" xmlns="http://www.w3.org/2000/svg"
 width="1920.000000pt" height="1080.000000pt" viewBox="0 0 1920.000000 1080.000000"
 preserveAspectRatio="xMidYMid meet">
<metadata>
Created by potrace 1.16, written by Peter Selinger 2001-2019
</metadata>
<g transform="translate(0.000000,1080.000000) scale(0.100000,-0.100000)"
fill="#000000" stroke="none">
<path d="M12690 9774 c-265 -123 -703 -261 -1130 -354 -107 -24 -196 -44 -198
-45 -2 -2 37 -43 86 -91 105 -105 152 -187 152 -266 0 -90 -61 -230 -173 -398
-51 -76 -695 -930 -726 -963 -16 -16 -38 9 -405 482 -213 275 -386 504 -385
508 2 4 57 50 123 101 67 51 122 96 124 100 3 11 -57 44 -71 39 -17 -7 -291
-227 -295 -237 -2 -5 182 -244 408 -531 227 -287 417 -530 422 -539 9 -13 3
-28 -28 -68 l-38 -52 -22 22 c-22 24 -904 1133 -917 1155 -5 7 56 67 169 165
l176 153 -926 3 c-509 1 -1342 1 -1851 0 l-924 -3 48 -75 c115 -179 272 -485
336 -652 14 -39 22 -48 41 -48 22 0 24 4 24 43 0 59 33 184 65 247 58 115 163
192 310 230 138 35 384 46 563 24 l42 -5 0 -52 0 -52 -188 -1 c-269 -2 -409
-37 -511 -129 -65 -59 -120 -187 -146 -337 l-6 -38 43 0 43 0 16 83 c28 142
87 235 179 282 97 49 143 57 363 62 l207 5 0 -1185 0 -1186 -100 -71 c-55 -38
-146 -103 -202 -142 l-103 -73 333 -3 c182 -1 480 -1 662 0 l330 3 -170 130
-169 130 -1 1296 0 1296 148 6 c170 6 363 -8 407 -29 17 -8 57 -41 89 -73 l57
-58 -63 14 c-38 9 -150 17 -285 20 l-223 6 0 -1255 0 -1255 185 -176 184 -177
-679 0 c-374 0 -680 -4 -680 -8 0 -4 15 -22 33 -40 l33 -32 737 0 c426 0 737
4 737 9 0 5 -102 109 -227 231 l-226 221 -5 1198 -5 1199 69 7 c185 18 502
-53 565 -127 10 -13 86 -111 168 -218 81 -107 295 -383 475 -614 l326 -419 0
-481 -1 -481 -194 -149 c-107 -82 -200 -155 -206 -162 -10 -12 100 -14 690
-14 385 0 701 2 701 4 0 3 -92 76 -205 162 l-205 157 0 486 0 486 543 725
c298 399 612 820 698 935 87 116 203 263 260 329 124 143 366 387 512 515 59
52 106 100 104 105 -6 20 -41 16 -97 -10z"/>
<path d="M12795 9587 c-131 -105 -340 -311 -481 -476 -138 -159 -134 -154
-928 -1201 l-565 -745 0 -485 -1 -485 211 -217 211 -218 -831 0 c-596 0 -831
-3 -831 -11 0 -6 8 -24 17 -40 l17 -29 904 0 904 0 -170 178 c-94 97 -209 215
-256 262 l-86 85 0 467 0 468 619 815 c667 876 780 1021 929 1188 92 103 262
263 385 362 57 46 57 46 57 101 0 29 -3 54 -7 54 -5 0 -48 -33 -98 -73z"/>
<path d="M14993 5113 c-95 -203 -175 -376 -179 -385 -5 -16 2 -18 72 -18 l79
0 196 196 195 195 193 -200 193 -201 70 0 c62 0 70 2 66 18 -3 9 -79 185 -168
390 l-164 372 -191 0 -190 0 -172 -367z"/>
<path d="M7272 4934 c-73 -80 -132 -150 -132 -155 0 -5 19 -9 43 -9 28 0 93
21 201 65 87 36 166 65 175 65 9 0 90 -29 180 -65 115 -46 176 -65 208 -65 29
0 43 4 41 11 -2 6 -62 76 -133 155 l-130 144 -161 0 -161 0 -131 -146z"/>
<path d="M380 4185 l0 -375 40 0 c33 0 40 4 44 23 47 237 95 349 190 442 85
84 124 97 309 103 l147 4 -2 -1144 -3 -1144 -25 -49 c-35 -67 -92 -97 -201
-103 l-79 -5 0 -43 0 -44 590 0 590 0 0 44 0 43 -84 5 c-110 6 -168 38 -206
113 l-25 50 -3 1138 -3 1137 139 0 c166 0 215 -12 293 -74 98 -77 158 -193
210 -403 l22 -93 39 0 38 0 0 375 0 375 -1010 0 -1010 0 0 -375z"/>
<path d="M2570 4516 l0 -43 80 -6 c127 -10 201 -60 220 -151 8 -36 10 -378 8
-1141 l-3 -1090 -25 -45 c-37 -65 -92 -93 -197 -98 l-83 -5 0 -43 0 -44 590 0
590 0 0 45 0 45 -58 0 c-82 0 -151 23 -189 62 -60 65 -58 38 -61 611 l-3 527
381 0 381 0 -3 -527 -3 -528 -25 -45 c-37 -65 -92 -93 -197 -98 l-83 -5 0 -43
0 -44 590 0 590 0 0 45 0 45 -57 0 c-111 1 -188 35 -228 102 -20 32 -20 57
-23 1123 -2 787 0 1105 8 1143 22 100 87 147 219 158 l81 7 0 43 0 44 -590 0
-590 0 0 -44 0 -43 81 -7 c123 -10 194 -57 219 -144 6 -23 10 -215 10 -509 l0
-473 -380 0 -380 0 0 468 c0 513 3 542 57 594 40 38 92 57 178 65 l75 6 0 43
0 44 -590 0 -590 0 0 -44z"/>
<path d="M5180 4516 l0 -43 75 -6 c114 -10 175 -42 213 -112 16 -27 17 -126
17 -1145 l0 -1116 -26 -49 c-35 -70 -84 -96 -195 -103 l-84 -5 0 -43 0 -44
590 0 590 0 0 44 0 43 -83 5 c-99 5 -161 35 -198 94 -34 56 -38 170 -38 1169
0 985 4 1100 38 1161 39 69 118 104 237 104 l44 0 0 45 0 45 -590 0 -590 0 0
-44z"/>
<path d="M6490 4515 l0 -45 39 0 c117 0 205 -41 243 -113 l23 -42 0 -1100 c0
-1198 3 -1143 -57 -1211 -36 -40 -105 -64 -190 -64 l-58 0 0 -45 0 -45 968 0
967 0 33 288 c19 158 41 354 51 435 l17 148 -39 -3 -39 -3 -25 -84 c-95 -333
-272 -528 -536 -591 -64 -16 -117 -20 -247 -20 -192 0 -219 8 -260 81 l-25 44
-3 498 -3 497 35 0 c50 0 135 -19 177 -41 111 -56 211 -267 236 -501 l8 -73
43 -3 42 -3 0 711 0 711 -42 -3 -42 -3 -12 -97 c-44 -350 -158 -512 -370 -526
l-74 -5 0 537 0 536 213 0 c235 0 309 -11 403 -57 72 -35 148 -102 191 -170
40 -63 97 -229 114 -335 l13 -78 38 0 38 0 0 410 0 410 -935 0 -935 0 0 -45z"/>
<path d="M8740 4516 l0 -44 68 -7 c120 -13 174 -49 202 -140 10 -30 15 -264
20 -945 5 -639 11 -921 19 -960 44 -202 88 -288 211 -411 117 -118 209 -168
365 -200 137 -29 410 -23 525 11 124 36 223 94 315 185 126 124 190 236 220
383 34 164 38 265 45 1057 4 575 10 810 18 835 39 114 100 166 216 183 l76 11
0 43 0 43 -390 0 -390 0 0 -45 c0 -25 3 -45 8 -45 4 0 35 -4 69 -9 91 -14 147
-42 177 -90 56 -88 56 -91 56 -906 0 -909 -7 -989 -90 -1162 -69 -141 -186
-242 -325 -279 -68 -19 -200 -17 -266 2 -152 44 -258 171 -291 347 -10 57 -13
275 -13 1012 l0 940 25 45 c35 62 86 87 201 96 l89 7 0 43 0 44 -580 0 -580 0
0 -44z"/>
<path d="M11830 4515 c0 -41 2 -45 28 -50 117 -24 151 -54 230 -197 29 -53
188 -394 353 -757 l300 -662 -3 -377 c-3 -345 -5 -380 -22 -412 -47 -90 -111
-120 -253 -120 l-83 0 0 -45 0 -45 635 0 635 0 0 44 0 44 -102 4 c-118 4 -163
21 -211 80 -41 51 -46 112 -47 560 l0 377 314 633 c309 624 382 758 444 810
26 22 81 47 140 64 7 2 12 21 12 49 l0 45 -346 0 -345 0 3 -47 3 -48 51 -6
c80 -10 120 -27 155 -66 63 -73 42 -133 -282 -791 -122 -249 -226 -449 -229
-445 -15 17 -455 1004 -487 1091 -40 113 -41 133 -5 173 25 28 37 33 110 42
l82 11 0 43 0 43 -540 0 -540 0 0 -45z"/>
<path d="M14290 4516 l0 -43 74 -6 c41 -4 93 -14 115 -23 51 -20 97 -72 111
-123 7 -27 10 -384 8 -1133 l-3 -1094 -26 -49 c-35 -70 -84 -96 -195 -103
l-84 -5 0 -43 0 -44 970 0 c624 0 970 3 970 10 0 15 89 780 96 823 l6 37 -41
0 c-39 0 -41 -1 -51 -42 -78 -310 -238 -525 -451 -607 -109 -43 -184 -53 -367
-49 -174 3 -188 7 -235 70 -28 38 -36 176 -36 652 l-1 399 73 -7 c100 -9 184
-50 232 -116 70 -96 121 -240 144 -413 6 -43 11 -80 11 -83 0 -2 18 -4 40 -4
l40 0 0 710 0 710 -39 0 -40 0 -6 -47 c-51 -405 -157 -566 -382 -581 l-73 -5
0 537 0 536 208 0 c247 0 313 -9 410 -57 159 -78 254 -228 301 -478 22 -113
17 -105 61 -105 l40 0 0 410 0 410 -940 0 -940 0 0 -44z"/>
<path d="M16510 4516 c0 -46 10 -56 52 -56 79 0 150 -54 232 -176 l46 -69 0
-955 c0 -990 -3 -1082 -41 -1171 -37 -85 -110 -132 -226 -145 l-63 -7 0 -43 0
-44 400 0 400 0 0 45 0 45 -43 0 c-110 0 -215 65 -255 158 -39 91 -43 195 -40
1071 l3 833 741 -1103 c740 -1103 741 -1104 777 -1107 l36 -3 3 1218 c4 1152
5 1221 22 1275 28 87 73 133 153 158 36 11 76 20 89 20 22 0 24 4 24 50 l0 50
-375 0 -375 0 0 -44 0 -44 53 -7 c116 -15 187 -57 227 -135 37 -73 41 -142 38
-784 l-3 -620 -535 815 -536 814 -402 3 -402 2 0 -44z"/>
<path d="M7423 1659 c-61 -11 -95 -32 -147 -90 -150 -167 -94 -484 100 -565
48 -20 151 -17 199 5 50 23 120 98 148 159 18 39 22 65 22 157 0 93 -4 118
-22 158 -62 134 -173 199 -300 176z"/>
</g>
</svg>
