<?xml version="1.0" standalone="no"?>
<!DOCTYPE svg PUBLIC "-//W3C//DTD SVG 20010904//EN"
 "http://www.w3.org/TR/2001/REC-SVG-20010904/DTD/svg10.dtd">
<svg version="1.0" xmlns="http://www.w3.org/2000/svg"
 width="512.000000pt" height="512.000000pt" viewBox="0 0 512.000000 512.000000"
 preserveAspectRatio="xMidYMid meet">

<g transform="translate(0.000000,512.000000) scale(0.100000,-0.100000)"
fill="#000000" stroke="none">
<path d="M3204 5104 c-384 -64 -714 -350 -835 -724 l-27 -85 -704 -5 -703 -5
-73 -27 c-106 -39 -177 -83 -257 -163 -79 -80 -125 -152 -160 -251 -23 -66
-24 -68 -92 -103 -86 -46 -207 -159 -256 -243 -21 -34 -49 -99 -64 -143 -24
-74 -27 -96 -30 -285 -4 -192 -3 -211 20 -300 l25 -96 -25 -74 c-21 -62 -24
-87 -20 -145 13 -169 105 -296 262 -360 l60 -24 8 -78 c21 -219 103 -398 251
-552 115 -118 260 -210 387 -242 27 -7 49 -15 48 -18 0 -3 -27 -28 -60 -54
-123 -99 -221 -250 -270 -417 -20 -69 -23 -101 -27 -392 l-4 -318 747 0 746 0
-3 498 c-3 482 -4 499 -25 549 -11 29 -38 76 -58 104 -20 28 -35 52 -33 53 2
1 38 19 80 38 315 148 508 436 531 791 2 37 4 39 55 57 29 11 75 35 102 54
l49 35 33 -62 c44 -85 154 -193 238 -234 272 -133 583 -51 749 198 56 83 84
174 90 294 l6 100 80 6 c90 6 127 22 179 75 106 109 82 298 -48 379 -42 25
-62 31 -128 34 -67 3 -78 6 -74 20 3 9 8 30 12 46 15 67 69 150 167 259 117
131 186 238 233 366 55 144 67 217 67 385 0 217 -43 379 -149 557 -62 104
-230 277 -332 343 -230 147 -502 204 -768 159z m365 -169 c233 -49 441 -190
572 -389 102 -155 149 -312 149 -501 0 -256 -81 -448 -279 -660 -102 -110
-173 -235 -195 -345 l-13 -65 -116 -3 c-103 -2 -117 -1 -117 14 0 32 60 380
70 402 10 22 10 22 47 6 74 -32 67 -36 231 129 l154 154 -27 53 c-14 28 -25
53 -23 55 2 1 27 10 56 19 l52 18 0 223 0 223 -27 11 c-16 6 -40 15 -55 20
l-27 10 24 53 25 53 -159 158 -158 159 -52 -26 -51 -26 -10 27 c-6 16 -15 40
-21 56 l-11 27 -223 0 -223 0 -13 -37 c-24 -77 -23 -76 -81 -47 l-51 26 -157
-157 -158 -158 24 -51 c13 -28 20 -53 16 -57 -4 -3 -28 -14 -54 -24 l-48 -18
0 -221 0 -222 53 -19 c28 -10 53 -19 55 -21 2 -1 -6 -20 -17 -43 -12 -22 -21
-46 -21 -53 0 -7 69 -83 154 -167 l155 -154 48 19 c26 10 51 20 54 22 9 4 24
-64 54 -244 36 -216 46 -194 -90 -194 l-115 0 -5 28 c-16 74 -60 192 -92 245
-19 32 -74 100 -121 150 -134 144 -202 263 -248 433 -26 96 -27 341 -1 434 46
172 119 301 237 420 128 129 285 218 453 254 85 19 289 20 376 1z m-56 -364
c15 -44 22 -51 62 -67 43 -16 46 -16 92 4 l48 21 76 -76 77 -75 -19 -42 c-23
-51 -23 -66 -2 -110 13 -27 27 -39 65 -53 l48 -17 0 -108 0 -108 -53 -24 c-46
-20 -55 -29 -67 -65 -12 -39 -12 -45 9 -88 l22 -46 -77 -78 -77 -78 -48 25
-48 24 -48 -22 c-41 -20 -49 -29 -62 -70 l-15 -48 -108 0 -109 0 -15 38 c-23
59 -28 65 -71 83 -40 17 -42 17 -89 -6 l-49 -23 -76 75 -77 75 23 52 23 52
-22 43 c-17 36 -30 48 -66 61 l-45 18 -3 108 -3 109 50 18 c44 15 53 24 70 63
l21 46 -25 47 -24 48 78 77 78 77 46 -22 c45 -22 49 -22 89 -8 44 16 49 22 72
82 l15 37 108 0 108 0 18 -49z m-1201 -490 c-2 -27 1 -95 8 -151 28 -244 122
-448 286 -620 97 -101 151 -181 174 -258 11 -35 20 -68 20 -73 0 -5 -26 -9
-59 -9 -32 0 -76 -6 -99 -14 -39 -14 -40 -14 -60 14 -12 15 -47 41 -79 57
l-58 28 -540 5 c-535 5 -540 5 -597 28 -143 58 -245 172 -298 335 -12 37 -25
67 -29 67 -7 0 -90 -27 -138 -45 -9 -3 -7 -19 7 -61 11 -31 20 -63 20 -69 0
-8 -28 -14 -82 -18 -97 -6 -167 -31 -249 -89 -93 -65 -176 -189 -194 -290 -5
-26 -13 -38 -24 -38 -9 0 -44 -13 -78 -29 -34 -16 -64 -27 -67 -24 -3 4 -6 97
-6 209 0 231 11 286 78 390 54 83 122 140 229 190 l91 43 12 58 c41 204 215
372 420 406 14 2 316 5 671 6 l646 1 -5 -49z m1138 -793 c0 -7 -11 -78 -25
-158 -14 -80 -25 -148 -25 -152 0 -5 -6 -8 -13 -8 -10 0 -21 40 -36 138 -13
75 -25 149 -28 165 l-5 27 66 0 c46 0 66 -4 66 -12z m-2439 -193 c62 -67 178
-140 272 -172 l82 -28 533 -5 534 -5 24 -28 24 -28 0 -394 c0 -226 -5 -426
-11 -471 -41 -296 -247 -528 -554 -622 -76 -23 -691 -30 -803 -8 -160 30 -280
93 -397 211 -91 91 -143 175 -183 290 l-27 80 -3 483 -3 482 27 60 c42 93 128
165 229 190 17 5 72 8 122 9 l93 1 41 -45z m3090 -314 c38 -38 38 -74 0 -112
l-30 -29 -689 2 c-651 3 -691 4 -710 21 -43 39 -33 108 18 134 19 10 177 13
703 13 l679 0 29 -29z m-3775 -528 c-8 -8 -61 25 -93 59 -44 46 -63 97 -63
170 1 84 36 150 105 196 l50 34 3 -228 c1 -125 0 -229 -2 -231z m2423 227 l63
0 -7 -37 c-11 -61 -55 -132 -101 -164 -24 -16 -47 -29 -53 -29 -7 0 -11 42
-11 121 0 121 0 121 23 115 12 -3 51 -6 86 -6z m1049 -87 c-12 -185 -106 -320
-268 -384 -76 -30 -213 -31 -287 -2 -162 64 -259 203 -271 391 l-5 82 418 0
418 0 -5 -87z m-1944 -1271 c26 -15 59 -40 72 -57 54 -71 54 -74 54 -500 l0
-395 -245 0 -245 0 0 398 0 398 28 54 c65 128 208 171 336 102z m-481 -18
c-49 -87 -53 -129 -53 -546 l0 -388 -245 0 -245 0 0 208 c0 234 10 293 65 407
83 170 241 300 425 349 80 21 81 21 53 -30z"/>
<path d="M3280 4444 c-151 -41 -261 -157 -296 -311 -74 -332 277 -605 585
-455 71 34 151 114 186 185 155 317 -136 672 -475 581z m236 -189 c69 -43 107
-108 112 -191 6 -87 -16 -141 -78 -197 -78 -71 -173 -86 -266 -43 -98 45 -152
142 -141 250 9 89 60 159 142 198 63 29 168 22 231 -17z"/>
<path d="M1925 2719 c-175 -20 -331 -176 -351 -351 l-7 -58 81 0 c81 0 82 0
88 28 21 102 65 160 153 200 105 48 230 10 298 -91 17 -26 35 -68 39 -92 l6
-45 81 0 80 0 -6 59 c-15 170 -169 326 -342 349 -33 4 -87 4 -120 1z"/>
<path d="M853 2701 c-144 -53 -255 -191 -270 -336 l-6 -55 81 0 81 0 7 38 c23
130 142 222 271 209 106 -11 190 -87 214 -193 l12 -54 80 0 80 0 -6 58 c-11
123 -105 255 -225 314 -59 29 -76 33 -166 36 -80 2 -112 -2 -153 -17z"/>
<path d="M1070 1978 c0 -116 15 -193 50 -265 36 -74 115 -149 198 -190 52 -26
67 -28 167 -28 104 0 114 2 175 32 113 56 202 166 229 284 6 24 11 90 11 147
l0 102 -415 0 -415 0 0 -82z m660 -108 c0 -98 -102 -201 -213 -216 -58 -8
-142 17 -189 56 -41 34 -88 120 -88 162 l0 28 245 0 245 0 0 -30z"/>
<path d="M4130 2230 l0 -80 375 0 c395 0 422 -3 439 -45 12 -31 6 -73 -13 -96
-19 -24 -21 -24 -283 -29 -247 -5 -265 -6 -305 -27 -150 -80 -175 -291 -47
-402 54 -48 76 -54 226 -60 125 -5 140 -8 160 -28 33 -33 30 -89 -6 -119 l-27
-24 -693 0 c-776 0 -749 2 -824 -72 -113 -111 -92 -300 42 -383 l49 -30 836
-5 c866 -5 869 -5 885 -46 12 -30 6 -72 -13 -95 l-19 -24 -719 -5 -720 -5 -49
-30 c-58 -36 -108 -113 -119 -180 -14 -96 48 -210 138 -254 43 -21 52 -21 860
-21 l817 0 0 80 0 80 -800 0 -801 0 -24 25 c-32 31 -32 75 -1 112 l24 28 719
5 c802 6 745 0 815 78 116 128 76 320 -82 391 -44 20 -62 21 -868 21 l-824 0
-29 29 c-36 36 -37 70 -5 108 l24 28 719 5 c794 6 742 1 812 71 43 43 62 82
68 145 8 73 -12 135 -58 188 -61 69 -93 80 -252 86 -131 5 -140 6 -158 29 -10
13 -19 36 -19 51 0 84 20 90 302 90 128 0 249 5 269 10 47 13 114 72 142 124
30 57 30 165 0 221 -28 52 -67 89 -123 114 -43 20 -64 21 -442 21 l-398 0 0
-80z"/>
</g>
</svg>
